<svg version="1.1" id="Layer_1" xmlns="http://www.w3.org/2000/svg" xmlns:xlink="http://www.w3.org/1999/xlink" x="0px" y="0px"
	 width="100%" viewBox="0 0 500 500" enable-background="new 0 0 500 500" xml:space="preserve">
<path fill="#FFFFFF" opacity="1.000000" stroke="none" 
	d="
M235.000000,501.000000 
	C156.666687,501.000000 78.833374,501.000000 1.000042,501.000000 
	C1.000028,334.333405 1.000028,167.666779 1.000014,1.000131 
	C167.666565,1.000087 334.333130,1.000087 500.999756,1.000044 
	C500.999847,167.666519 500.999847,334.333038 500.999939,500.999786 
	C412.500000,501.000000 324.000000,501.000000 235.000000,501.000000 
M68.613022,143.114288 
	C46.019173,166.443222 34.236279,194.076462 34.898170,226.822540 
	C35.608707,261.975311 49.899876,290.874939 76.709457,312.837250 
	C118.904434,347.403229 178.101410,347.088898 220.568695,313.148651 
	C269.920746,273.705994 277.431030,199.367966 236.075638,151.224014 
	C206.456329,116.742630 168.315170,104.418732 123.803207,113.239594 
	C102.781471,117.405434 84.635201,127.764435 68.613022,143.114288 
M293.366577,214.764496 
	C294.618164,214.661194 295.869751,214.557907 297.169525,214.450638 
	C295.730530,208.209854 292.745453,205.607635 286.477997,204.844574 
	C279.850067,204.037613 274.233551,206.496597 271.994263,211.282455 
	C270.104187,215.322052 270.770203,218.930435 274.698425,221.217239 
	C277.683472,222.954941 281.106781,223.924942 284.185089,225.525070 
	C285.308990,226.109283 286.000122,227.525986 286.888702,228.562912 
	C285.645599,229.191864 284.423553,230.274948 283.154053,230.333694 
	C281.600800,230.405563 279.992523,229.669037 278.435150,229.193283 
	C275.264526,228.224686 272.112091,227.196533 268.073792,225.913971 
	C269.540741,233.159317 273.113373,236.261566 278.390778,237.458969 
	C283.842224,238.695877 289.075714,238.151596 293.268677,234.023468 
	C297.923615,229.440491 296.901489,223.101715 291.049713,219.977386 
	C289.012665,218.889786 286.614655,218.454971 284.634369,217.291595 
	C283.002533,216.332916 281.744080,214.738708 280.320160,213.426163 
	C282.598145,213.219543 284.905365,212.696991 287.144989,212.904541 
	C288.992554,213.075806 290.760071,214.111221 293.366577,214.764496 
M361.108917,242.703842 
	C361.660004,239.980682 362.211060,237.257523 362.797058,234.361816 
	C369.262726,238.809830 373.863983,238.632996 378.150055,234.049606 
	C382.493622,229.404770 383.347321,220.968781 379.926849,216.492172 
	C376.746399,212.329697 373.081512,212.035034 366.324341,215.398453 
	C363.418732,212.517181 358.771912,212.623871 358.167908,215.746506 
	C356.283173,225.490112 354.690796,235.290283 352.985077,245.068527 
	C353.307983,245.540558 353.630920,246.012604 353.953857,246.484650 
	C356.301727,245.495193 358.649567,244.505737 361.108917,242.703842 
M306.591949,232.146347 
	C307.071747,229.367615 306.979462,226.294342 308.210785,223.902512 
	C309.211182,221.959320 311.799408,220.833588 313.683441,219.345322 
	C314.492737,221.244492 316.018127,223.165192 315.961761,225.038300 
	C315.845703,228.896149 314.884674,232.728607 314.239502,236.770859 
	C317.013580,236.770859 319.275482,236.770859 321.735474,236.770859 
	C322.400116,233.512299 323.058838,230.454666 323.637177,227.381882 
	C323.974579,225.589233 324.285583,223.780609 324.431824,221.964935 
	C324.987366,215.067139 319.468719,211.169098 312.990509,213.844086 
	C312.122284,214.202621 311.274414,214.610458 309.818939,215.264099 
	C310.247223,211.826477 310.607483,208.934677 311.197205,204.201080 
	C307.784821,205.651154 303.702148,206.244888 303.354523,207.719269 
	C301.124939,217.175735 299.714661,226.825378 298.035553,236.408813 
	C305.298126,237.653564 305.298126,237.653564 306.591949,232.146347 
M340.203766,237.775360 
	C343.025238,236.474106 346.226379,235.649506 348.586823,233.769440 
	C353.087036,230.185104 354.195374,224.572479 352.091339,219.831802 
	C350.088623,215.319458 345.395660,212.707718 339.833527,213.010086 
	C332.938232,213.384918 327.111298,219.201569 326.953339,225.867538 
	C326.787048,232.883087 330.833710,236.766800 340.203766,237.775360 
M404.356506,237.124161 
	C409.862427,235.393326 413.009857,231.493683 414.289001,225.736923 
	C412.508331,226.228806 411.112885,227.181198 409.834351,228.270767 
	C408.085815,229.760880 406.656860,231.801605 404.684937,232.820755 
	C398.914307,235.803177 391.706604,233.412552 388.708130,227.875320 
	C385.554474,222.051559 387.105560,214.360046 392.152252,210.796448 
	C397.440430,207.062302 404.972168,208.276947 409.211060,213.306168 
	C410.374756,214.686859 412.199524,215.510376 413.720917,216.589569 
	C414.002502,216.164139 414.284088,215.738724 414.565674,215.313309 
	C412.372314,209.417511 408.293854,205.709824 401.892334,204.926666 
	C394.812073,204.060440 388.946136,206.307220 385.309723,212.630798 
	C381.774323,218.778717 381.923859,225.188873 385.996735,231.024826 
	C390.254028,237.124924 396.347137,239.037292 404.356506,237.124161 
M434.345367,215.196136 
	C428.272339,213.246658 423.694672,214.542526 420.751770,219.044235 
	C417.942688,223.341217 418.252411,229.620529 421.466736,233.537170 
	C425.093536,237.956482 429.824554,238.421036 436.595917,235.348190 
	C438.149109,236.104858 439.368744,236.699051 440.945465,237.467209 
	C440.945465,229.402603 440.945465,222.155197 440.945465,214.791473 
	C438.805664,215.111664 436.913574,215.394775 434.345367,215.196136 
M465.159149,231.364716 
	C465.159149,233.142136 465.159149,234.919556 465.159149,236.834900 
	C469.116241,236.834900 472.539886,236.834900 475.986938,236.834900 
	C475.640869,234.084869 475.640869,234.084869 469.291046,233.251923 
	C469.291046,228.187073 469.291046,223.125076 469.291046,217.762527 
	C471.728455,217.762527 473.830017,217.762527 476.140717,217.762527 
	C475.851685,212.189514 471.361053,215.867188 469.284302,214.012955 
	C469.045349,212.767212 468.754150,211.249100 468.432739,209.573425 
	C467.292023,209.765015 466.112274,209.616684 465.773163,210.081543 
	C464.477570,211.857819 463.354218,213.784027 462.398071,215.765945 
	C462.169098,216.240540 462.777191,217.172333 463.097839,217.847504 
	C463.749695,219.220139 464.906799,220.511703 465.066223,221.925674 
	C465.381165,224.719177 465.159149,227.573212 465.159149,231.364716 
M454.589905,218.875839 
	C456.625275,218.403564 458.660645,217.931274 460.692505,217.459808 
	C459.721008,213.203201 457.419983,213.114166 451.929352,216.535065 
	C450.776337,215.770737 449.899445,214.821518 448.922394,214.703857 
	C448.464355,214.648682 447.345215,216.185837 447.324829,217.020828 
	C447.182892,222.839844 447.129730,228.668808 447.362305,234.481995 
	C447.404144,235.528442 448.898926,236.516754 449.722870,237.531921 
	C450.164337,237.260071 450.605804,236.988220 451.047272,236.716370 
	C451.047272,233.915741 450.683044,231.053497 451.143585,228.330765 
	C451.666718,225.237991 452.927490,222.269989 454.589905,218.875839 
z"/>
<path fill="#39B6FF" opacity="1.000000" stroke="none" 
	d="
M68.877403,142.875626 
	C84.635201,127.764435 102.781471,117.405434 123.803207,113.239594 
	C168.315170,104.418732 206.456329,116.742630 236.075638,151.224014 
	C277.431030,199.367966 269.920746,273.705994 220.568695,313.148651 
	C178.101410,347.088898 118.904434,347.403229 76.709457,312.837250 
	C49.899876,290.874939 35.608707,261.975311 34.898170,226.822540 
	C34.236279,194.076462 46.019173,166.443222 68.877403,142.875626 
M195.463501,181.121536 
	C166.469894,181.121521 137.475449,181.014374 108.483627,181.241302 
	C104.315033,181.273911 102.738083,179.982971 101.756088,176.118149 
	C100.119362,169.676453 96.159683,166.204529 90.928528,166.002625 
	C86.602539,165.835663 82.217911,165.597870 77.955887,166.144653 
	C76.246147,166.363983 74.794807,168.597427 73.225861,169.914124 
	C74.745331,171.322510 76.092979,173.615097 77.820900,173.950882 
	C81.174911,174.602661 84.742584,174.150253 88.221703,174.164215 
	C91.430573,174.177109 93.465782,175.438202 94.269646,178.845642 
	C95.298523,183.206924 96.774261,187.463150 98.066376,191.761948 
	C102.845230,207.660873 107.627754,223.558701 112.796608,240.746124 
	C111.767548,241.621338 109.511665,243.129028 107.800041,245.107544 
	C105.969650,247.223343 104.403503,249.659714 103.158211,252.172333 
	C99.527969,259.497070 101.038719,261.873505 109.120171,261.876709 
	C138.447083,261.888367 167.773987,261.881683 197.100906,261.879974 
	C198.100403,261.879913 199.312836,262.217651 200.056244,261.775818 
	C201.744202,260.772552 203.201477,259.381073 204.752518,258.147430 
	C203.190506,256.765076 201.780396,255.117035 200.007523,254.103500 
	C199.001022,253.528091 197.400528,253.988007 196.067535,253.987976 
	C169.906601,253.987228 143.745651,253.987427 117.584717,253.987427 
	C115.837105,253.987427 114.089493,253.987427 112.115608,253.987427 
	C115.237450,246.306900 118.932510,243.687714 126.101723,243.685593 
	C143.764526,243.680344 161.427353,243.702087 179.090103,243.676819 
	C189.301727,243.662216 193.270706,240.576035 195.975601,231.000275 
	C199.410965,218.838547 202.935532,206.701691 206.482162,194.571793 
	C210.417542,181.112335 210.447235,181.121017 195.463501,181.121536 
M178.123611,269.823639 
	C176.353561,276.873627 179.111618,282.106781 185.224472,283.296967 
	C191.220001,284.464264 196.418900,280.893066 197.275513,275.018890 
	C197.909973,270.668091 195.421890,266.287476 191.322067,264.537018 
	C186.614258,262.526947 182.179092,264.116547 178.123611,269.823639 
M100.284615,275.850189 
	C103.092476,282.037628 106.289482,284.165192 111.630074,283.386566 
	C116.319992,282.702820 119.172256,279.969421 119.926407,275.358032 
	C120.911064,269.337128 116.875824,264.295898 111.001572,263.880035 
	C104.432289,263.414978 100.376488,267.587860 100.284615,275.850189 
z"/>
<path fill="#3FB9FF" opacity="1.000000" stroke="none" 
	d="
M292.964813,214.764099 
	C290.760071,214.111221 288.992554,213.075806 287.144989,212.904541 
	C284.905365,212.696991 282.598145,213.219543 280.320160,213.426147 
	C281.744080,214.738708 283.002533,216.332916 284.634369,217.291595 
	C286.614655,218.454971 289.012665,218.889786 291.049713,219.977386 
	C296.901489,223.101715 297.923615,229.440491 293.268677,234.023468 
	C289.075714,238.151596 283.842224,238.695877 278.390778,237.458969 
	C273.113373,236.261566 269.540741,233.159317 268.073792,225.913971 
	C272.112091,227.196533 275.264526,228.224686 278.435150,229.193283 
	C279.992523,229.669037 281.600800,230.405563 283.154053,230.333694 
	C284.423553,230.274948 285.645599,229.191864 286.888702,228.562912 
	C286.000122,227.525986 285.308990,226.109283 284.185089,225.525070 
	C281.106781,223.924942 277.683472,222.954941 274.698425,221.217239 
	C270.770203,218.930435 270.104187,215.322052 271.994263,211.282455 
	C274.233551,206.496597 279.850067,204.037613 286.477997,204.844574 
	C292.745453,205.607635 295.730530,208.209854 297.169525,214.450638 
	C295.869751,214.557907 294.618164,214.661194 292.964813,214.764099 
z"/>
<path fill="#40B9FF" opacity="1.000000" stroke="none" 
	d="
M361.053162,243.110062 
	C358.649567,244.505737 356.301727,245.495193 353.953857,246.484650 
	C353.630920,246.012604 353.307983,245.540558 352.985077,245.068527 
	C354.690796,235.290283 356.283173,225.490112 358.167908,215.746506 
	C358.771912,212.623871 363.418732,212.517181 366.324341,215.398453 
	C373.081512,212.035034 376.746399,212.329697 379.926849,216.492172 
	C383.347321,220.968781 382.493622,229.404770 378.150055,234.049606 
	C373.863983,238.632996 369.262726,238.809830 362.797058,234.361816 
	C362.211060,237.257523 361.660004,239.980682 361.053162,243.110062 
M371.456299,230.104858 
	C372.277802,228.721680 373.903961,227.233322 373.740021,225.978973 
	C373.465515,223.878983 372.048950,221.928268 371.113068,219.914719 
	C368.996979,221.028030 366.275208,221.681976 364.966461,223.407608 
	C364.009491,224.669434 364.183411,227.903427 365.199524,229.216614 
	C366.115173,230.399979 368.860931,230.167252 371.456299,230.104858 
z"/>
<path fill="#3FB9FF" opacity="1.000000" stroke="none" 
	d="
M306.472839,232.554535 
	C305.298126,237.653564 305.298126,237.653564 298.035553,236.408813 
	C299.714661,226.825378 301.124939,217.175735 303.354523,207.719269 
	C303.702148,206.244888 307.784821,205.651154 311.197205,204.201080 
	C310.607483,208.934677 310.247223,211.826477 309.818939,215.264099 
	C311.274414,214.610458 312.122284,214.202621 312.990509,213.844086 
	C319.468719,211.169098 324.987366,215.067139 324.431824,221.964935 
	C324.285583,223.780609 323.974579,225.589233 323.637177,227.381882 
	C323.058838,230.454666 322.400116,233.512299 321.735474,236.770859 
	C319.275482,236.770859 317.013580,236.770859 314.239502,236.770859 
	C314.884674,232.728607 315.845703,228.896149 315.961761,225.038300 
	C316.018127,223.165192 314.492737,221.244492 313.683441,219.345322 
	C311.799408,220.833588 309.211182,221.959320 308.210785,223.902512 
	C306.979462,226.294342 307.071747,229.367615 306.472839,232.554535 
z"/>
<path fill="#3FB9FF" opacity="1.000000" stroke="none" 
	d="
M339.802063,237.794373 
	C330.833710,236.766800 326.787048,232.883087 326.953339,225.867538 
	C327.111298,219.201569 332.938232,213.384918 339.833527,213.010086 
	C345.395660,212.707718 350.088623,215.319458 352.091339,219.831802 
	C354.195374,224.572479 353.087036,230.185104 348.586823,233.769440 
	C346.226379,235.649506 343.025238,236.474106 339.802063,237.794373 
M334.890198,226.416534 
	C336.124207,227.940903 337.116119,230.288498 338.664520,230.743805 
	C340.042725,231.149094 342.801147,229.904602 343.571899,228.583771 
	C344.603027,226.816742 344.961121,224.058090 344.332886,222.143784 
	C343.949341,220.975143 340.520660,219.521118 339.601227,220.078430 
	C337.639343,221.267670 336.420410,223.682617 334.890198,226.416534 
z"/>
<path fill="#101010" opacity="1.000000" stroke="none" 
	d="
M403.964966,237.233032 
	C396.347137,239.037292 390.254028,237.124924 385.996735,231.024826 
	C381.923859,225.188873 381.774323,218.778717 385.309723,212.630798 
	C388.946136,206.307220 394.812073,204.060440 401.892334,204.926666 
	C408.293854,205.709824 412.372314,209.417511 414.565674,215.313309 
	C414.284088,215.738724 414.002502,216.164139 413.720917,216.589569 
	C412.199524,215.510376 410.374756,214.686859 409.211060,213.306168 
	C404.972168,208.276947 397.440430,207.062302 392.152252,210.796448 
	C387.105560,214.360046 385.554474,222.051559 388.708130,227.875320 
	C391.706604,233.412552 398.914307,235.803177 404.684937,232.820755 
	C406.656860,231.801605 408.085815,229.760880 409.834351,228.270767 
	C411.112885,227.181198 412.508331,226.228806 414.289001,225.736923 
	C413.009857,231.493683 409.862427,235.393326 403.964966,237.233032 
z"/>
<path fill="#0E0E0E" opacity="1.000000" stroke="none" 
	d="
M434.683441,215.437012 
	C436.913574,215.394775 438.805664,215.111664 440.945465,214.791473 
	C440.945465,222.155197 440.945465,229.402603 440.945465,237.467209 
	C439.368744,236.699051 438.149109,236.104858 436.595917,235.348190 
	C429.824554,238.421036 425.093536,237.956482 421.466736,233.537170 
	C418.252411,229.620529 417.942688,223.341217 420.751770,219.044235 
	C423.694672,214.542526 428.272339,213.246658 434.683441,215.437012 
M428.822418,233.958405 
	C433.280670,234.308762 436.186005,232.382812 437.262177,228.009323 
	C438.232971,224.063934 437.374146,220.133636 433.601135,218.712463 
	C431.150757,217.789490 427.219604,218.304230 425.025574,219.775742 
	C421.688934,222.013550 421.594208,226.203796 423.383118,229.694275 
	C424.267090,231.419006 426.450958,232.477554 428.822418,233.958405 
z"/>
<path fill="#131313" opacity="1.000000" stroke="none" 
	d="
M465.159149,230.883469 
	C465.159149,227.573212 465.381165,224.719177 465.066223,221.925674 
	C464.906799,220.511703 463.749695,219.220139 463.097839,217.847504 
	C462.777191,217.172333 462.169098,216.240540 462.398071,215.765945 
	C463.354218,213.784027 464.477570,211.857819 465.773163,210.081543 
	C466.112274,209.616684 467.292023,209.765015 468.432739,209.573425 
	C468.754150,211.249100 469.045349,212.767212 469.284302,214.012955 
	C471.361053,215.867188 475.851685,212.189514 476.140717,217.762527 
	C473.830017,217.762527 471.728455,217.762527 469.291046,217.762527 
	C469.291046,223.125076 469.291046,228.187073 469.291046,233.251923 
	C475.640869,234.084869 475.640869,234.084869 475.986938,236.834900 
	C472.539886,236.834900 469.116241,236.834900 465.159149,236.834900 
	C465.159149,234.919556 465.159149,233.142136 465.159149,230.883469 
z"/>
<path fill="#1C1C1C" opacity="1.000000" stroke="none" 
	d="
M454.228760,219.061798 
	C452.927490,222.269989 451.666718,225.237991 451.143585,228.330765 
	C450.683044,231.053497 451.047272,233.915741 451.047272,236.716370 
	C450.605804,236.988220 450.164337,237.260071 449.722870,237.531921 
	C448.898926,236.516754 447.404144,235.528442 447.362305,234.481995 
	C447.129730,228.668808 447.182892,222.839844 447.324829,217.020828 
	C447.345215,216.185837 448.464355,214.648682 448.922394,214.703857 
	C449.899445,214.821518 450.776337,215.770737 451.929352,216.535065 
	C457.419983,213.114166 459.721008,213.203201 460.692505,217.459808 
	C458.660645,217.931274 456.625275,218.403564 454.228760,219.061798 
z"/>
<path fill="#F9FDFF" opacity="1.000000" stroke="none" 
	d="
M195.955460,181.121597 
	C210.447235,181.121017 210.417542,181.112335 206.482162,194.571793 
	C202.935532,206.701691 199.410965,218.838547 195.975601,231.000275 
	C193.270706,240.576035 189.301727,243.662216 179.090103,243.676819 
	C161.427353,243.702087 143.764526,243.680344 126.101723,243.685593 
	C118.932510,243.687714 115.237450,246.306900 112.115608,253.987427 
	C114.089493,253.987427 115.837105,253.987427 117.584717,253.987427 
	C143.745651,253.987427 169.906601,253.987228 196.067535,253.987976 
	C197.400528,253.988007 199.001022,253.528091 200.007523,254.103500 
	C201.780396,255.117035 203.190506,256.765076 204.752518,258.147430 
	C203.201477,259.381073 201.744202,260.772552 200.056244,261.775818 
	C199.312836,262.217651 198.100403,261.879913 197.100906,261.879974 
	C167.773987,261.881683 138.447083,261.888367 109.120171,261.876709 
	C101.038719,261.873505 99.527969,259.497070 103.158211,252.172333 
	C104.403503,249.659714 105.969650,247.223343 107.800041,245.107544 
	C109.511665,243.129028 111.767548,241.621338 112.796608,240.746124 
	C107.627754,223.558701 102.845230,207.660873 98.066376,191.761948 
	C96.774261,187.463150 95.298523,183.206924 94.269646,178.845642 
	C93.465782,175.438202 91.430573,174.177109 88.221703,174.164215 
	C84.742584,174.150253 81.174911,174.602661 77.820900,173.950882 
	C76.092979,173.615097 74.745331,171.322510 73.225861,169.914124 
	C74.794807,168.597427 76.246147,166.363983 77.955887,166.144653 
	C82.217911,165.597870 86.602539,165.835663 90.928528,166.002625 
	C96.159683,166.204529 100.119362,169.676453 101.756088,176.118149 
	C102.738083,179.982971 104.315033,181.273911 108.483627,181.241302 
	C137.475449,181.014374 166.469894,181.121521 195.955460,181.121597 
M147.818298,205.870071 
	C151.733536,205.870071 155.648773,205.870071 160.019501,205.870071 
	C160.019501,200.131073 160.019501,195.242661 160.019501,190.277252 
	C154.338348,190.277252 148.918991,190.277252 143.347534,190.277252 
	C143.347534,194.672485 143.102890,198.815536 143.510223,202.893433 
	C143.619461,203.986984 145.716019,204.882034 147.818298,205.870071 
M181.762726,199.129761 
	C182.179901,196.252487 182.597076,193.375214 183.042740,190.301453 
	C176.864059,190.301453 171.164124,190.301453 165.071289,190.301453 
	C165.071289,195.470825 165.071289,200.349182 165.071289,205.858780 
	C168.225555,205.858780 171.368912,205.514832 174.405579,205.937439 
	C179.251877,206.611877 181.499146,204.743408 181.762726,199.129761 
M122.459526,199.925049 
	C123.449081,202.041931 121.803810,205.810181 126.123566,205.839371 
	C130.240082,205.867172 134.356949,205.845352 139.155289,205.845352 
	C138.835983,200.283936 138.549118,195.287750 138.265610,190.349701 
	C132.129166,190.349701 126.732727,190.349701 121.178101,190.349701 
	C121.571678,193.500580 121.920364,196.292130 122.459526,199.925049 
M194.432587,189.996185 
	C192.457413,189.996185 190.482254,189.996185 188.139435,189.996185 
	C187.376968,194.010925 186.449570,197.705719 186.080948,201.455429 
	C185.944977,202.838303 187.224380,205.629044 187.690567,205.593246 
	C190.399826,205.385300 194.573395,205.337494 195.435471,203.727493 
	C197.547928,199.782333 198.124619,195.014862 199.393677,190.301880 
	C197.628754,190.168869 196.485275,190.082703 194.432587,189.996185 
M151.507690,210.114822 
	C149.089966,210.114822 146.672226,210.114822 144.061325,210.114822 
	C144.061325,213.202179 143.787262,215.566483 144.181198,217.813660 
	C144.367889,218.878586 145.772903,220.457977 146.726212,220.533157 
	C150.641663,220.841995 154.595642,220.662262 158.753281,220.662262 
	C158.753281,216.871246 158.753281,213.679291 158.753281,210.114960 
	C156.400497,210.114960 154.429855,210.114960 151.507690,210.114822 
M124.207298,211.532211 
	C124.429955,212.828445 124.518303,214.166687 124.907600,215.410782 
	C125.455223,217.160797 126.098793,220.238998 126.923134,220.314072 
	C130.947403,220.680588 135.234619,220.835907 138.981476,219.651108 
	C139.894165,219.362503 139.117325,213.730835 139.117325,209.860275 
	C133.881241,210.171799 129.182083,210.451385 124.207298,211.532211 
M175.280792,210.115417 
	C171.668213,210.115417 168.055649,210.115417 164.172348,210.115417 
	C163.909897,213.722122 163.686417,216.793289 163.409607,220.597473 
	C167.863007,220.597473 172.118347,221.265610 175.938995,220.268341 
	C177.465149,219.869980 178.358429,215.862473 178.858109,213.361679 
	C179.031891,212.492020 177.151840,211.211990 175.280792,210.115417 
M118.546448,204.479721 
	C118.293457,202.514328 118.090523,200.540970 117.778915,198.584900 
	C116.333359,189.510498 116.322319,189.508499 107.093445,190.135681 
	C106.843208,190.152679 106.613129,190.466354 106.171211,190.789917 
	C107.068329,193.877090 107.962418,197.037964 108.906181,200.183960 
	C110.841469,206.635132 111.089775,206.758896 118.546448,204.479721 
M155.241547,235.999985 
	C156.202713,235.034027 157.864853,234.147293 157.984726,233.086258 
	C158.267761,230.581467 157.828354,227.992767 157.622879,225.442703 
	C157.613922,225.331680 157.024612,225.186447 156.708649,225.193436 
	C152.901443,225.277420 148.912811,224.799393 145.409943,225.883957 
	C144.479340,226.172089 145.019577,231.278275 144.939072,234.173798 
	C144.926559,234.624039 145.207535,235.082443 145.501755,236.003326 
	C148.390961,236.003326 151.350021,236.003326 155.241547,235.999985 
M174.015686,225.132919 
	C162.089767,225.353073 162.088791,225.353165 163.064056,235.086243 
	C163.077454,235.219864 163.244781,235.338058 163.546021,235.733643 
	C167.098373,235.733643 170.861649,235.733643 174.981552,235.733643 
	C175.369965,233.590363 175.994049,231.499008 176.044342,229.393951 
	C176.077911,227.989639 175.294128,226.565781 174.015686,225.132919 
M130.705597,225.133438 
	C125.950073,225.821640 125.613434,227.503601 128.615875,235.672516 
	C132.324646,235.672516 136.039337,235.672516 139.778107,235.672516 
	C139.778107,232.114044 139.778107,228.890381 139.778107,225.132812 
	C136.842194,225.132812 134.238022,225.132812 130.705597,225.133438 
M191.039276,219.669296 
	C191.927460,216.690720 192.815628,213.712143 193.715012,210.696014 
	C184.042786,209.012436 182.403015,210.562225 183.365463,220.730652 
	C185.737274,220.594437 188.142410,220.456299 191.039276,219.669296 
M113.905167,217.615753 
	C114.683548,221.989136 117.784309,220.512466 120.433014,220.547974 
	C120.039391,208.431732 119.623756,209.433884 111.946098,210.708969 
	C112.529808,212.780167 113.102249,214.811356 113.905167,217.615753 
M180.985306,228.547318 
	C180.652756,230.933151 180.320190,233.318985 179.973648,235.805161 
	C186.537781,235.557571 188.789566,232.639786 188.430069,223.905029 
	C185.615036,225.365479 183.356949,226.536987 180.985306,228.547318 
M118.587425,225.139450 
	C115.515373,228.522522 117.485741,233.444763 123.225090,235.155792 
	C122.101494,231.470520 124.285652,227.179367 118.587425,225.139450 
z"/>
<path fill="#F8FCFF" opacity="1.000000" stroke="none" 
	d="
M178.295776,269.483826 
	C182.179092,264.116547 186.614258,262.526947 191.322067,264.537018 
	C195.421890,266.287476 197.909973,270.668091 197.275513,275.018890 
	C196.418900,280.893066 191.220001,284.464264 185.224472,283.296967 
	C179.111618,282.106781 176.353561,276.873627 178.295776,269.483826 
M187.477615,269.737488 
	C186.073120,271.210205 184.224045,272.498291 183.495743,274.251862 
	C183.226425,274.900269 185.566254,277.609985 186.764755,277.643555 
	C188.271179,277.685760 191.140411,275.865448 191.086685,274.992584 
	C190.977692,273.222168 189.298508,271.548401 187.477615,269.737488 
z"/>
<path fill="#F8FCFF" opacity="1.000000" stroke="none" 
	d="
M100.200966,275.464355 
	C100.376488,267.587860 104.432289,263.414978 111.001572,263.880035 
	C116.875824,264.295898 120.911064,269.337128 119.926407,275.358032 
	C119.172256,279.969421 116.319992,282.702820 111.630074,283.386566 
	C106.289482,284.165192 103.092476,282.037628 100.200966,275.464355 
M106.023750,273.489899 
	C107.599777,274.956360 109.175797,276.422821 110.751823,277.889282 
	C111.877113,276.329681 113.380119,274.893372 113.948700,273.152008 
	C114.188660,272.417053 112.233765,270.014771 111.666801,270.139801 
	C109.724625,270.568146 107.955421,271.780762 106.023750,273.489899 
z"/>
<path fill="#F9FDFF" opacity="1.000000" stroke="none" 
	d="
M371.127930,230.331970 
	C368.860931,230.167252 366.115173,230.399979 365.199524,229.216614 
	C364.183411,227.903427 364.009491,224.669434 364.966461,223.407608 
	C366.275208,221.681976 368.996979,221.028030 371.113068,219.914734 
	C372.048950,221.928268 373.465515,223.878983 373.740021,225.978973 
	C373.903961,227.233322 372.277802,228.721680 371.127930,230.331970 
z"/>
<path fill="#F9FDFF" opacity="1.000000" stroke="none" 
	d="
M334.893646,226.005951 
	C336.420410,223.682617 337.639343,221.267670 339.601227,220.078430 
	C340.520660,219.521118 343.949341,220.975143 344.332886,222.143784 
	C344.961121,224.058090 344.603027,226.816742 343.571899,228.583771 
	C342.801147,229.904602 340.042725,231.149094 338.664520,230.743805 
	C337.116119,230.288498 336.124207,227.940903 334.893646,226.005951 
z"/>
<path fill="#F6F6F6" opacity="1.000000" stroke="none" 
	d="
M428.434509,233.897980 
	C426.450958,232.477554 424.267090,231.419006 423.383118,229.694275 
	C421.594208,226.203796 421.688934,222.013550 425.025574,219.775742 
	C427.219604,218.304230 431.150757,217.789490 433.601135,218.712463 
	C437.374146,220.133636 438.232971,224.063934 437.262177,228.009323 
	C436.186005,232.382812 433.280670,234.308762 428.434509,233.897980 
z"/>
<path fill="#3FB9FF" opacity="1.000000" stroke="none" 
	d="
M147.359283,205.869141 
	C145.716019,204.882034 143.619461,203.986984 143.510223,202.893433 
	C143.102890,198.815536 143.347534,194.672485 143.347534,190.277252 
	C148.918991,190.277252 154.338348,190.277252 160.019501,190.277252 
	C160.019501,195.242661 160.019501,200.131073 160.019501,205.870071 
	C155.648773,205.870071 151.733536,205.870071 147.359283,205.869141 
z"/>
<path fill="#3CB8FF" opacity="1.000000" stroke="none" 
	d="
M181.651428,199.544464 
	C181.499146,204.743408 179.251877,206.611877 174.405579,205.937439 
	C171.368912,205.514832 168.225555,205.858780 165.071289,205.858780 
	C165.071289,200.349182 165.071289,195.470825 165.071289,190.301453 
	C171.164124,190.301453 176.864059,190.301453 183.042740,190.301453 
	C182.597076,193.375214 182.179901,196.252487 181.651428,199.544464 
z"/>
<path fill="#3CB8FF" opacity="1.000000" stroke="none" 
	d="
M122.364288,199.504364 
	C121.920364,196.292130 121.571678,193.500580 121.178101,190.349701 
	C126.732727,190.349701 132.129166,190.349701 138.265610,190.349701 
	C138.549118,195.287750 138.835983,200.283936 139.155289,205.845352 
	C134.356949,205.845352 130.240082,205.867172 126.123566,205.839371 
	C121.803810,205.810181 123.449081,202.041931 122.364288,199.504364 
z"/>
<path fill="#40B9FF" opacity="1.000000" stroke="none" 
	d="
M194.887177,189.996353 
	C196.485275,190.082703 197.628754,190.168869 199.393677,190.301880 
	C198.124619,195.014862 197.547928,199.782333 195.435471,203.727493 
	C194.573395,205.337494 190.399826,205.385300 187.690567,205.593246 
	C187.224380,205.629044 185.944977,202.838303 186.080948,201.455429 
	C186.449570,197.705719 187.376968,194.010925 188.139435,189.996185 
	C190.482254,189.996185 192.457413,189.996185 194.887177,189.996353 
z"/>
<path fill="#45BBFF" opacity="1.000000" stroke="none" 
	d="
M151.983459,210.114899 
	C154.429855,210.114960 156.400497,210.114960 158.753281,210.114960 
	C158.753281,213.679291 158.753281,216.871246 158.753281,220.662262 
	C154.595642,220.662262 150.641663,220.841995 146.726212,220.533157 
	C145.772903,220.457977 144.367889,218.878586 144.181198,217.813660 
	C143.787262,215.566483 144.061325,213.202179 144.061325,210.114822 
	C146.672226,210.114822 149.089966,210.114822 151.983459,210.114899 
z"/>
<path fill="#4BBDFF" opacity="1.000000" stroke="none" 
	d="
M124.345116,211.131592 
	C129.182083,210.451385 133.881241,210.171799 139.117325,209.860275 
	C139.117325,213.730835 139.894165,219.362503 138.981476,219.651108 
	C135.234619,220.835907 130.947403,220.680588 126.923134,220.314072 
	C126.098793,220.238998 125.455223,217.160797 124.907600,215.410782 
	C124.518303,214.166687 124.429955,212.828445 124.345116,211.131592 
z"/>
<path fill="#45BBFF" opacity="1.000000" stroke="none" 
	d="
M175.745300,210.117401 
	C177.151840,211.211990 179.031891,212.492020 178.858109,213.361679 
	C178.358429,215.862473 177.465149,219.869980 175.938995,220.268341 
	C172.118347,221.265610 167.863007,220.597473 163.409607,220.597473 
	C163.686417,216.793289 163.909897,213.722122 164.172348,210.115417 
	C168.055649,210.115417 171.668213,210.115417 175.745300,210.117401 
z"/>
<path fill="#40B9FF" opacity="1.000000" stroke="none" 
	d="
M118.461731,204.868896 
	C111.089775,206.758896 110.841469,206.635132 108.906181,200.183960 
	C107.962418,197.037964 107.068329,193.877090 106.171211,190.789917 
	C106.613129,190.466354 106.843208,190.152679 107.093445,190.135681 
	C116.322319,189.508499 116.333359,189.510498 117.778915,198.584900 
	C118.090523,200.540970 118.293457,202.514328 118.461731,204.868896 
z"/>
<path fill="#40B9FF" opacity="1.000000" stroke="none" 
	d="
M154.775314,236.001648 
	C151.350021,236.003326 148.390961,236.003326 145.501755,236.003326 
	C145.207535,235.082443 144.926559,234.624039 144.939072,234.173798 
	C145.019577,231.278275 144.479340,226.172089 145.409943,225.883957 
	C148.912811,224.799393 152.901443,225.277420 156.708649,225.193436 
	C157.024612,225.186447 157.613922,225.331680 157.622879,225.442703 
	C157.828354,227.992767 158.267761,230.581467 157.984726,233.086258 
	C157.864853,234.147293 156.202713,235.034027 154.775314,236.001648 
z"/>
<path fill="#40B9FF" opacity="1.000000" stroke="none" 
	d="
M174.445923,225.141800 
	C175.294128,226.565781 176.077911,227.989639 176.044342,229.393951 
	C175.994049,231.499008 175.369965,233.590363 174.981552,235.733643 
	C170.861649,235.733643 167.098373,235.733643 163.546021,235.733643 
	C163.244781,235.338058 163.077454,235.219864 163.064056,235.086243 
	C162.088791,225.353165 162.089767,225.353073 174.445923,225.141800 
z"/>
<path fill="#3FB9FF" opacity="1.000000" stroke="none" 
	d="
M131.169724,225.133118 
	C134.238022,225.132812 136.842194,225.132812 139.778107,225.132812 
	C139.778107,228.890381 139.778107,232.114044 139.778107,235.672516 
	C136.039337,235.672516 132.324646,235.672516 128.615875,235.672516 
	C125.613434,227.503601 125.950073,225.821640 131.169724,225.133118 
z"/>
<path fill="#4BBDFF" opacity="1.000000" stroke="none" 
	d="
M190.793427,219.993729 
	C188.142410,220.456299 185.737274,220.594437 183.365463,220.730652 
	C182.403015,210.562225 184.042786,209.012436 193.715012,210.696014 
	C192.815628,213.712143 191.927460,216.690720 190.793427,219.993729 
z"/>
<path fill="#4BBDFF" opacity="1.000000" stroke="none" 
	d="
M113.789932,217.229156 
	C113.102249,214.811356 112.529808,212.780167 111.946098,210.708969 
	C119.623756,209.433884 120.039391,208.431732 120.433014,220.547974 
	C117.784309,220.512466 114.683548,221.989136 113.789932,217.229156 
z"/>
<path fill="#45BBFF" opacity="1.000000" stroke="none" 
	d="
M181.042084,228.127899 
	C183.356949,226.536987 185.615036,225.365479 188.430069,223.905029 
	C188.789566,232.639786 186.537781,235.557571 179.973648,235.805161 
	C180.320190,233.318985 180.652756,230.933151 181.042084,228.127899 
z"/>
<path fill="#4BBDFF" opacity="1.000000" stroke="none" 
	d="
M118.999367,225.127228 
	C124.285652,227.179367 122.101494,231.470520 123.225090,235.155792 
	C117.485741,233.444763 115.515373,228.522522 118.999367,225.127228 
z"/>
<path fill="#45BBFF" opacity="1.000000" stroke="none" 
	d="
M187.872101,269.786133 
	C189.298508,271.548401 190.977692,273.222168 191.086685,274.992584 
	C191.140411,275.865448 188.271179,277.685760 186.764755,277.643555 
	C185.566254,277.609985 183.226425,274.900269 183.495743,274.251862 
	C184.224045,272.498291 186.073120,271.210205 187.872101,269.786133 
z"/>
<path fill="#45BBFF" opacity="1.000000" stroke="none" 
	d="
M106.072006,273.092102 
	C107.955421,271.780762 109.724625,270.568146 111.666801,270.139801 
	C112.233765,270.014771 114.188660,272.417053 113.948700,273.152008 
	C113.380119,274.893372 111.877113,276.329681 110.751823,277.889282 
	C109.175797,276.422821 107.599777,274.956360 106.072006,273.092102 
z"/>
</svg>