<svg version="1.1" id="Layer_1" xmlns="http://www.w3.org/2000/svg" xmlns:xlink="http://www.w3.org/1999/xlink" x="0px" y="0px"
	 width="100%" viewBox="0 0 500 500" enable-background="new 0 0 500 500" xml:space="preserve">
<path fill="#FFFFFF" opacity="1.000000" stroke="none" 
	d="
M232.000000,501.000000 
	C154.666687,501.000000 77.833366,501.000000 1.000041,501.000000 
	C1.000027,334.333405 1.000027,167.666779 1.000014,1.000131 
	C167.666565,1.000087 334.333130,1.000087 500.999756,1.000044 
	C500.999847,167.666519 500.999847,334.333038 500.999939,500.999786 
	C411.500000,501.000000 322.000000,501.000000 232.000000,501.000000 
M443.353180,216.077332 
	C441.998657,215.465988 440.621704,214.299210 439.294037,214.352814 
	C435.990021,214.486237 432.708435,215.175522 429.067383,215.691269 
	C429.067383,222.175690 429.067383,229.416367 429.067383,236.657059 
	C429.428925,236.950699 429.790466,237.244339 430.152008,237.537979 
	C430.951660,236.521103 432.310272,235.570999 432.441315,234.474243 
	C432.773682,231.692596 432.474243,228.842270 432.574493,226.024673 
	C432.806305,219.509384 438.573730,215.730667 445.833313,218.029205 
	C446.169189,219.501892 446.755951,220.968002 446.794708,222.448456 
	C446.919098,227.201538 446.840973,231.959930 446.840973,236.811493 
	C450.776764,236.811493 454.205048,236.811493 457.958527,236.811493 
	C457.498474,231.303802 452.735901,235.129639 450.608185,232.814484 
	C450.608185,228.299637 450.608185,223.393707 450.608185,218.222382 
	C452.781097,218.065201 455.044342,217.901489 457.554169,217.719940 
	C457.385468,212.247101 452.768616,215.960403 450.804382,213.956314 
	C450.743317,213.817596 450.583496,213.365692 450.354675,212.951935 
	C449.752014,211.862122 449.119385,210.788895 448.498688,209.709045 
	C447.942017,210.661209 447.478149,211.686020 446.804688,212.546783 
	C445.999176,213.576309 445.014465,214.465607 443.353180,216.077332 
M230.508316,273.992554 
	C247.131088,237.962158 246.654251,202.109818 227.003937,167.664795 
	C196.544693,114.272797 132.855789,95.181503 77.386253,121.792755 
	C32.923573,143.123520 6.836122,193.834229 15.347545,242.388092 
	C26.238474,304.515930 82.000732,345.852142 144.296616,336.788818 
	C183.302383,331.113922 211.996994,309.822845 230.508316,273.992554 
M261.863617,237.902451 
	C264.487579,237.605530 267.227966,237.688721 269.710144,236.928741 
	C274.204529,235.552658 277.220306,232.388336 277.434204,227.536179 
	C277.644379,222.768631 274.187439,220.579010 270.275146,219.013748 
	C267.960999,218.087891 265.587708,217.285812 263.354523,216.195572 
	C262.622833,215.838364 261.638672,214.423813 261.832794,214.060043 
	C262.290833,213.201797 263.345306,212.218277 264.236420,212.136734 
	C265.639496,212.008331 267.124786,212.508057 268.542877,212.869141 
	C271.694000,213.671478 274.825043,214.552719 278.521545,215.552536 
	C277.119537,208.361588 273.957062,205.536499 267.831512,204.873322 
	C260.768463,204.108643 255.121231,206.717667 253.043427,211.636459 
	C251.249329,215.883636 252.494354,219.234116 256.284668,221.455109 
	C258.842590,222.953949 261.832367,223.704437 264.439758,225.134659 
	C265.854462,225.910675 266.873199,227.408569 268.070557,228.580841 
	C266.346436,229.177078 264.657684,230.018600 262.884460,230.274246 
	C261.877441,230.419418 260.735107,229.596664 259.648468,229.225143 
	C256.622894,228.190704 253.594574,227.164246 249.485626,225.766724 
	C250.909622,233.926453 255.306366,236.570206 261.863617,237.902451 
M351.552124,237.801834 
	C360.183960,235.917419 364.893890,228.513214 362.880219,219.993393 
	C361.639008,214.741745 356.438843,211.929184 351.358368,213.470535 
	C349.741211,213.961166 347.851929,213.475952 346.106659,213.641998 
	C343.617920,213.878754 340.058044,211.701813 339.248322,216.151459 
	C337.502441,225.746094 335.917114,235.369934 334.163208,245.580826 
	C336.639862,245.580826 340.107544,246.320831 340.575378,245.449722 
	C342.375732,242.097565 343.215881,238.229706 344.343872,234.769455 
	C346.383118,235.720169 348.584351,236.746429 351.552124,237.801834 
M302.912842,214.402878 
	C299.347290,214.017853 295.781708,213.632812 291.767395,213.199310 
	C291.923676,211.298126 292.135712,208.718414 292.345062,206.171509 
	C285.482483,204.418411 284.987061,204.732361 283.999817,210.968231 
	C283.533600,213.913147 282.900513,216.831314 282.410919,219.772919 
	C281.477600,225.380325 280.593018,230.995850 279.702576,236.518814 
	C285.181061,237.775772 288.263885,237.061050 288.211670,231.239288 
	C288.187012,228.489029 288.701569,225.404495 290.035706,223.082733 
	C290.988312,221.424881 293.712738,220.785141 295.646515,219.691086 
	C296.333557,221.486115 297.671753,223.317337 297.574371,225.068726 
	C297.360413,228.916245 296.420380,232.723373 295.757172,236.663269 
	C298.781982,236.663269 301.007019,236.663269 303.355530,236.663269 
	C304.224701,231.965378 305.485687,227.600250 305.681305,223.187881 
	C305.801727,220.471573 304.295288,217.683136 302.912842,214.402878 
M331.672852,216.860794 
	C325.997070,212.314468 320.702606,211.715942 315.158661,214.993927 
	C310.421570,217.794830 307.576904,223.251831 308.410339,227.939301 
	C309.283234,232.848602 312.848633,236.538788 318.045654,237.515274 
	C323.640533,238.566513 328.237640,236.517609 331.721283,232.182877 
	C335.484009,227.500931 335.497040,223.172897 331.672852,216.860794 
M372.581879,230.980301 
	C367.281738,224.528763 367.435822,215.971436 372.935486,211.344284 
	C378.462708,206.693954 385.866028,208.074921 391.609863,214.587036 
	C392.493561,215.588959 394.269928,215.803543 396.481934,216.742355 
	C392.569977,206.986526 385.620483,203.215103 376.913666,205.079163 
	C369.339447,206.700760 364.148010,213.877777 364.553619,222.166626 
	C364.958801,230.446716 370.624634,236.757202 378.621735,237.835327 
	C386.717499,238.926758 393.389343,234.514603 396.454224,224.841904 
	C394.210022,226.157303 392.549377,226.610870 391.725067,227.698349 
	C386.449982,234.657944 380.947571,235.861877 372.581879,230.980301 
M422.848877,221.667694 
	C422.848785,220.341904 423.040833,218.978363 422.790039,217.701843 
	C422.575592,216.610413 421.853180,215.618805 421.355438,214.583054 
	C420.299255,215.224167 419.243042,215.865265 417.963196,216.642151 
	C412.605072,213.075607 407.686829,213.169464 403.635406,217.249039 
	C399.706970,221.204849 399.153992,228.170120 402.398468,232.830566 
	C405.949036,237.930710 411.145630,238.620544 417.735443,235.444260 
	C419.721985,236.186646 421.031769,236.676117 422.848877,237.355179 
	C422.848877,231.872406 422.848877,227.244720 422.848877,221.667694 
z"/>
<path fill="#8D53FF" opacity="1.000000" stroke="none" 
	d="
M230.331818,274.323242 
	C211.996994,309.822845 183.302383,331.113922 144.296616,336.788818 
	C82.000732,345.852142 26.238474,304.515930 15.347545,242.388092 
	C6.836122,193.834229 32.923573,143.123520 77.386253,121.792755 
	C132.855789,95.181503 196.544693,114.272797 227.003937,167.664795 
	C246.654251,202.109818 247.131088,237.962158 230.331818,274.323242 
M165.973877,241.879883 
	C168.416382,238.693466 171.939926,235.858795 173.111298,232.258804 
	C177.789612,217.880951 181.767303,203.273972 185.939697,188.733261 
	C187.764709,182.373108 186.687241,180.998871 180.070663,180.995300 
	C156.249100,180.982422 132.427551,180.990234 108.605988,180.990234 
	C99.624611,180.990234 90.643234,180.990234 81.451599,180.990234 
	C80.609238,178.462631 79.855141,176.125031 79.051521,173.804596 
	C77.505699,169.341095 74.438560,166.282135 69.769379,165.749176 
	C65.000458,165.204834 60.112656,165.109253 55.340126,165.531631 
	C53.804588,165.667542 52.469784,168.071609 51.043144,169.438034 
	C52.508774,170.948044 53.733315,173.228821 55.498558,173.780991 
	C57.930031,174.541534 60.819733,174.329498 63.424992,173.941818 
	C69.232124,173.077667 71.568901,175.733551 73.088524,181.123856 
	C78.576584,200.590729 84.532600,219.925644 90.225090,239.019104 
	C87.221512,243.300613 83.573311,247.642838 80.902023,252.520096 
	C77.340950,259.021942 78.898987,261.140961 86.359192,261.142883 
	C116.011200,261.150482 145.663208,261.147034 175.315216,261.142548 
	C176.646851,261.142365 178.180084,261.497375 179.258255,260.960968 
	C180.558792,260.313965 182.454285,258.754517 182.326553,257.835358 
	C182.131256,256.429840 180.650864,254.821838 179.290466,254.075439 
	C178.126007,253.436508 176.363754,253.860138 174.865891,253.859833 
	C148.378983,253.854294 121.892082,253.855820 95.405182,253.855804 
	C93.678391,253.855789 91.951591,253.855789 89.942062,253.855789 
	C92.909859,246.181259 97.349907,243.011948 104.371094,243.010773 
	C122.362198,243.007751 140.353424,243.040344 158.344254,242.971695 
	C160.636444,242.962952 162.926651,242.435837 165.973877,241.879883 
M171.157181,265.276978 
	C167.129333,262.580048 162.632996,262.101288 159.349792,265.588470 
	C157.152451,267.922302 155.570755,271.848236 155.619568,275.032501 
	C155.683060,279.173065 158.747955,282.240906 163.245895,282.950500 
	C167.957489,283.693787 171.934311,282.276825 174.083725,277.868408 
	C176.247696,273.430176 175.629868,269.191650 171.157181,265.276978 
M83.285156,264.577606 
	C78.920219,267.407257 76.881393,271.250519 78.531158,276.413544 
	C80.229103,281.727417 85.921280,284.421265 91.384430,282.701691 
	C96.321205,281.147797 99.231606,275.290802 97.566704,270.260254 
	C95.691368,264.593872 90.439270,262.257202 83.285156,264.577606 
z"/>
<path fill="#9058FF" opacity="1.000000" stroke="none" 
	d="
M261.443817,237.865128 
	C255.306366,236.570206 250.909622,233.926453 249.485626,225.766724 
	C253.594574,227.164246 256.622894,228.190704 259.648468,229.225143 
	C260.735107,229.596664 261.877441,230.419418 262.884460,230.274246 
	C264.657684,230.018600 266.346436,229.177078 268.070557,228.580841 
	C266.873199,227.408569 265.854462,225.910675 264.439758,225.134659 
	C261.832367,223.704437 258.842590,222.953949 256.284668,221.455109 
	C252.494354,219.234116 251.249329,215.883636 253.043427,211.636459 
	C255.121231,206.717667 260.768463,204.108643 267.831512,204.873322 
	C273.957062,205.536499 277.119537,208.361588 278.521545,215.552536 
	C274.825043,214.552719 271.694000,213.671478 268.542877,212.869141 
	C267.124786,212.508057 265.639496,212.008331 264.236420,212.136734 
	C263.345306,212.218277 262.290833,213.201797 261.832794,214.060043 
	C261.638672,214.423813 262.622833,215.838364 263.354523,216.195572 
	C265.587708,217.285812 267.960999,218.087891 270.275146,219.013748 
	C274.187439,220.579010 277.644379,222.768631 277.434204,227.536179 
	C277.220306,232.388336 274.204529,235.552658 269.710144,236.928741 
	C267.227966,237.688721 264.487579,237.605530 261.443817,237.865128 
z"/>
<path fill="#9059FF" opacity="1.000000" stroke="none" 
	d="
M351.168884,237.787262 
	C348.584351,236.746429 346.383118,235.720169 344.343872,234.769455 
	C343.215881,238.229706 342.375732,242.097565 340.575378,245.449722 
	C340.107544,246.320831 336.639862,245.580826 334.163208,245.580826 
	C335.917114,235.369934 337.502441,225.746094 339.248322,216.151459 
	C340.058044,211.701813 343.617920,213.878754 346.106659,213.641998 
	C347.851929,213.475952 349.741211,213.961166 351.358368,213.470535 
	C356.438843,211.929184 361.639008,214.741745 362.880219,219.993393 
	C364.893890,228.513214 360.183960,235.917419 351.168884,237.787262 
M347.318329,230.455215 
	C350.668915,231.866364 353.515259,230.890869 354.525757,227.598801 
	C355.158844,225.536331 354.759003,222.613144 353.648254,220.792679 
	C353.108154,219.907532 348.545227,219.974503 348.111267,220.809647 
	C346.826416,223.282303 346.674347,226.348785 346.136322,229.193817 
	C346.096008,229.407074 346.507111,229.705719 347.318329,230.455215 
z"/>
<path fill="#9058FF" opacity="1.000000" stroke="none" 
	d="
M303.216064,214.664978 
	C304.295288,217.683136 305.801727,220.471573 305.681305,223.187881 
	C305.485687,227.600250 304.224701,231.965378 303.355530,236.663269 
	C301.007019,236.663269 298.781982,236.663269 295.757172,236.663269 
	C296.420380,232.723373 297.360413,228.916245 297.574371,225.068726 
	C297.671753,223.317337 296.333557,221.486115 295.646515,219.691101 
	C293.712738,220.785141 290.988312,221.424881 290.035706,223.082733 
	C288.701569,225.404495 288.187012,228.489029 288.211670,231.239288 
	C288.263885,237.061050 285.181061,237.775772 279.702576,236.518814 
	C280.593018,230.995850 281.477600,225.380325 282.410919,219.772919 
	C282.900513,216.831314 283.533600,213.913147 283.999817,210.968231 
	C284.987061,204.732361 285.482483,204.418411 292.345062,206.171509 
	C292.135712,208.718414 291.923676,211.298126 291.767395,213.199310 
	C295.781708,213.632812 299.347290,214.017853 303.216064,214.664978 
M291.246765,215.409836 
	C291.441345,215.419800 291.635895,215.429779 291.830475,215.439743 
	C291.738892,215.323288 291.647339,215.206833 291.246765,215.409836 
z"/>
<path fill="#9058FF" opacity="1.000000" stroke="none" 
	d="
M331.901550,217.156891 
	C335.497040,223.172897 335.484009,227.500931 331.721283,232.182877 
	C328.237640,236.517609 323.640533,238.566513 318.045654,237.515274 
	C312.848633,236.538788 309.283234,232.848602 308.410339,227.939301 
	C307.576904,223.251831 310.421570,217.794830 315.158661,214.993927 
	C320.702606,211.715942 325.997070,212.314468 331.901550,217.156891 
M316.279602,224.868134 
	C317.485504,226.907547 318.266632,229.739594 320.052582,230.696686 
	C321.169525,231.295288 324.486267,229.558090 325.595886,228.000076 
	C327.406525,225.457748 327.641113,221.928650 324.249298,220.309204 
	C320.617340,218.575150 317.878296,220.354965 316.279602,224.868134 
z"/>
<path fill="#111111" opacity="1.000000" stroke="none" 
	d="
M372.873871,231.240860 
	C380.947571,235.861877 386.449982,234.657944 391.725067,227.698349 
	C392.549377,226.610870 394.210022,226.157303 396.454224,224.841904 
	C393.389343,234.514603 386.717499,238.926758 378.621735,237.835327 
	C370.624634,236.757202 364.958801,230.446716 364.553619,222.166626 
	C364.148010,213.877777 369.339447,206.700760 376.913666,205.079163 
	C385.620483,203.215103 392.569977,206.986526 396.481934,216.742355 
	C394.269928,215.803543 392.493561,215.588959 391.609863,214.587036 
	C385.866028,208.074921 378.462708,206.693954 372.935486,211.344284 
	C367.435822,215.971436 367.281738,224.528763 372.873871,231.240860 
z"/>
<path fill="#161616" opacity="1.000000" stroke="none" 
	d="
M422.848877,222.142365 
	C422.848877,227.244720 422.848877,231.872406 422.848877,237.355179 
	C421.031769,236.676117 419.721985,236.186646 417.735443,235.444260 
	C411.145630,238.620544 405.949036,237.930710 402.398468,232.830566 
	C399.153992,228.170120 399.706970,221.204849 403.635406,217.249039 
	C407.686829,213.169464 412.605072,213.075607 417.963196,216.642151 
	C419.243042,215.865265 420.299255,215.224167 421.355438,214.583038 
	C421.853180,215.618805 422.575592,216.610413 422.790039,217.701843 
	C423.040833,218.978363 422.848785,220.341904 422.848877,222.142365 
M409.867340,217.824341 
	C404.726776,220.095367 402.754547,224.062958 404.402802,228.817535 
	C405.806061,232.865463 410.049530,235.011322 413.952026,233.646484 
	C417.760803,232.314392 420.025970,227.731628 418.786163,223.422943 
	C417.641754,219.445633 414.938446,217.397629 409.867340,217.824341 
z"/>
<path fill="#070707" opacity="1.000000" stroke="none" 
	d="
M444.107391,215.415649 
	C445.014465,214.465607 445.999176,213.576309 446.804688,212.546783 
	C447.478149,211.686020 447.942017,210.661209 448.498657,209.709045 
	C449.119385,210.788895 449.752014,211.862122 450.354675,212.951935 
	C450.583496,213.365692 450.743317,213.817596 450.804382,213.956314 
	C452.768616,215.960403 457.385468,212.247101 457.554169,217.719940 
	C455.044342,217.901489 452.781097,218.065201 450.608185,218.222382 
	C450.608185,223.393707 450.608185,228.299637 450.608185,232.814484 
	C452.735901,235.129639 457.498474,231.303802 457.958527,236.811493 
	C454.205048,236.811493 450.776764,236.811493 446.840973,236.811493 
	C446.840973,231.959930 446.919098,227.201538 446.794708,222.448456 
	C446.755951,220.968002 446.169189,219.501892 445.299011,217.694183 
	C444.545593,216.711334 444.326477,216.063492 444.107391,215.415649 
z"/>
<path fill="#191919" opacity="1.000000" stroke="none" 
	d="
M443.730286,215.746490 
	C444.326477,216.063492 444.545593,216.711334 444.878784,217.591705 
	C438.573730,215.730667 432.806305,219.509384 432.574493,226.024673 
	C432.474243,228.842270 432.773682,231.692596 432.441315,234.474243 
	C432.310272,235.570999 430.951660,236.521103 430.152008,237.537979 
	C429.790466,237.244339 429.428925,236.950699 429.067383,236.657059 
	C429.067383,229.416367 429.067383,222.175690 429.067383,215.691269 
	C432.708435,215.175522 435.990021,214.486237 439.294037,214.352814 
	C440.621704,214.299210 441.998657,215.465988 443.730286,215.746490 
z"/>
<path fill="#FCFAFF" opacity="1.000000" stroke="none" 
	d="
M165.595825,242.014374 
	C162.926651,242.435837 160.636444,242.962952 158.344254,242.971695 
	C140.353424,243.040344 122.362198,243.007751 104.371094,243.010773 
	C97.349907,243.011948 92.909859,246.181259 89.942062,253.855789 
	C91.951591,253.855789 93.678391,253.855789 95.405182,253.855804 
	C121.892082,253.855820 148.378983,253.854294 174.865891,253.859833 
	C176.363754,253.860138 178.126007,253.436508 179.290466,254.075439 
	C180.650864,254.821838 182.131256,256.429840 182.326553,257.835358 
	C182.454285,258.754517 180.558792,260.313965 179.258255,260.960968 
	C178.180084,261.497375 176.646851,261.142365 175.315216,261.142548 
	C145.663208,261.147034 116.011200,261.150482 86.359192,261.142883 
	C78.898987,261.140961 77.340950,259.021942 80.902023,252.520096 
	C83.573311,247.642838 87.221512,243.300613 90.225090,239.019104 
	C84.532600,219.925644 78.576584,200.590729 73.088524,181.123856 
	C71.568901,175.733551 69.232124,173.077667 63.424992,173.941818 
	C60.819733,174.329498 57.930031,174.541534 55.498558,173.780991 
	C53.733315,173.228821 52.508774,170.948044 51.043144,169.438034 
	C52.469784,168.071609 53.804588,165.667542 55.340126,165.531631 
	C60.112656,165.109253 65.000458,165.204834 69.769379,165.749176 
	C74.438560,166.282135 77.505699,169.341095 79.051521,173.804596 
	C79.855141,176.125031 80.609238,178.462631 81.451599,180.990234 
	C90.643234,180.990234 99.624611,180.990234 108.605988,180.990234 
	C132.427551,180.990234 156.249100,180.982422 180.070663,180.995300 
	C186.687241,180.998871 187.764709,182.373108 185.939697,188.733261 
	C181.767303,203.273972 177.789612,217.880951 173.111298,232.258804 
	C171.939926,235.858795 168.416382,238.693466 165.595825,242.014374 
M160.803940,192.212204 
	C160.240738,191.443665 159.699036,190.027405 159.110962,190.007904 
	C153.870438,189.833923 148.621735,189.906601 143.149078,189.906601 
	C142.854065,195.247406 142.594589,199.944901 142.322342,204.873444 
	C143.720291,204.978302 144.687683,205.095505 145.657166,205.116821 
	C158.265106,205.394119 158.265182,205.390686 160.803940,192.212204 
M122.113518,204.577988 
	C127.154160,204.810730 132.194794,205.043457 137.682037,205.296814 
	C137.682037,199.821228 137.682037,195.124496 137.682037,190.180573 
	C132.185181,190.180573 126.828407,190.180573 120.790596,190.180573 
	C121.132408,194.920135 121.449913,199.322693 122.113518,204.577988 
M116.843376,197.823380 
	C116.548492,195.374298 116.253601,192.925201 115.935318,190.281830 
	C110.259987,190.281830 104.758331,190.281830 98.982765,190.281830 
	C99.799622,195.417496 100.546310,200.112015 101.271782,204.673157 
	C106.758896,204.673157 111.790482,204.673157 116.854935,204.673157 
	C116.854935,202.395050 116.854935,200.568680 116.843376,197.823380 
M163.534653,202.851334 
	C163.133423,206.807175 166.282211,205.036682 167.641113,204.983475 
	C169.681244,204.903641 172.901642,204.374893 173.473465,203.085205 
	C175.235046,199.112137 175.978195,194.687531 177.134277,190.374008 
	C166.166550,188.928253 166.159180,188.926773 164.225113,198.578751 
	C163.996750,199.718414 163.902802,200.884995 163.534653,202.851334 
M133.291107,220.121033 
	C140.467712,219.067444 135.336823,213.694443 137.561401,210.400208 
	C131.795776,210.400208 126.955940,210.400208 122.228149,210.400208 
	C122.228149,213.722122 122.228149,216.650543 122.228149,220.122345 
	C125.809540,220.122345 129.077988,220.122345 133.291107,220.121033 
M132.372314,224.988327 
	C129.141495,224.988327 125.910675,224.988327 122.160500,224.988327 
	C122.498222,228.951797 122.771400,232.157883 123.055618,235.493484 
	C127.455933,235.493484 131.485931,235.493484 136.139694,235.493484 
	C136.139694,232.514450 136.378418,229.884048 136.010605,227.341385 
	C135.881332,226.447815 134.264389,225.769455 132.372314,224.988327 
M141.692413,216.463745 
	C142.409576,217.671265 143.034958,219.843399 143.859573,219.921875 
	C147.741257,220.291245 151.677612,220.086319 155.696884,220.086319 
	C156.248337,216.414673 156.696579,213.430237 157.210464,210.008759 
	C154.179977,210.008759 151.879242,210.008759 149.578506,210.008759 
	C147.150177,210.008759 144.721848,210.008759 142.160416,210.008759 
	C141.977661,212.258530 141.845428,213.886505 141.692413,216.463745 
M144.683716,224.985550 
	C143.472137,225.477493 141.300537,225.840988 141.214554,226.483521 
	C140.835327,229.317749 141.031525,232.233154 141.118774,235.116135 
	C141.124542,235.306839 141.946243,235.518784 142.409317,235.642822 
	C149.926758,237.656418 153.139755,235.545929 154.211380,227.907730 
	C154.323090,227.111526 154.449585,226.317398 154.650055,224.985001 
	C151.489319,224.985001 148.549942,224.985001 144.683716,224.985550 
M118.012161,230.484619 
	C117.900711,228.728958 117.789268,226.973297 117.677765,225.216858 
	C112.956284,225.216858 108.836090,225.216858 104.707123,225.216858 
	C105.305603,236.405457 105.300423,236.285751 114.086655,235.905548 
	C117.328842,235.765259 118.706360,234.654373 118.012161,230.484619 
M116.184654,210.181381 
	C111.571991,210.181381 106.959328,210.181381 102.331139,210.181381 
	C103.041199,220.742935 106.285408,222.672272 117.359055,219.107529 
	C117.205452,216.400375 117.046745,213.603149 116.184654,210.181381 
M86.243912,198.247467 
	C88.748329,206.082397 88.748329,206.082397 95.849617,204.433746 
	C96.535522,190.933182 93.953682,187.850983 84.204964,190.773392 
	C84.819160,192.996994 85.435410,195.228058 86.243912,198.247467 
M169.706924,217.202621 
	C170.205658,214.984528 170.704376,212.766449 171.274918,210.228989 
	C168.034775,210.228989 165.269440,210.228989 162.124969,210.228989 
	C161.630707,213.401978 161.160355,216.421478 160.402451,221.286911 
	C164.233261,219.887314 166.811218,218.945450 169.706924,217.202621 
M163.410553,224.988098 
	C158.862274,225.330170 157.228806,228.987640 158.734177,235.458878 
	C163.762634,234.908142 167.401184,230.922470 166.774857,226.362473 
	C166.697769,225.801178 165.143784,225.442719 163.410553,224.988098 
M98.739525,218.517471 
	C98.274651,215.796677 97.809769,213.075867 97.322716,210.225281 
	C94.787918,210.225281 92.542686,210.225281 90.265259,210.225281 
	C91.727837,220.494507 92.292671,221.097595 98.739525,218.517471 
M97.721512,233.867432 
	C98.662971,234.237732 99.604431,234.608047 101.260056,235.259247 
	C100.645782,231.454437 100.159668,228.443466 99.642952,225.242920 
	C97.925896,225.242920 96.517906,225.242920 94.140511,225.242920 
	C95.283951,228.260223 96.235237,230.770462 97.721512,233.867432 
z"/>
<path fill="#FAF7FF" opacity="1.000000" stroke="none" 
	d="
M171.459595,265.509521 
	C175.629868,269.191650 176.247696,273.430176 174.083725,277.868408 
	C171.934311,282.276825 167.957489,283.693787 163.245895,282.950500 
	C158.747955,282.240906 155.683060,279.173065 155.619568,275.032501 
	C155.570755,271.848236 157.152451,267.922302 159.349792,265.588470 
	C162.632996,262.101288 167.129333,262.580048 171.459595,265.509521 
M161.563248,274.971436 
	C165.064484,278.137878 168.782013,277.898102 169.005875,274.350861 
	C169.108734,272.721039 167.565918,269.812164 166.280350,269.500488 
	C163.027695,268.712036 160.878540,270.477356 161.563248,274.971436 
z"/>
<path fill="#FAF8FF" opacity="1.000000" stroke="none" 
	d="
M83.616760,264.389526 
	C90.439270,262.257202 95.691368,264.593872 97.566704,270.260254 
	C99.231606,275.290802 96.321205,281.147797 91.384430,282.701691 
	C85.921280,284.421265 80.229103,281.727417 78.531158,276.413544 
	C76.881393,271.250519 78.920219,267.407257 83.616760,264.389526 
M84.141930,271.919739 
	C83.508972,275.423370 84.945129,277.582458 88.513802,277.332611 
	C89.739563,277.246826 91.639977,275.546448 91.802811,274.383514 
	C92.005325,272.937225 90.968529,270.165405 90.035057,269.963562 
	C88.346451,269.598450 86.337753,270.713745 84.141930,271.919739 
z"/>
<path fill="#FAF8FF" opacity="1.000000" stroke="none" 
	d="
M347.013367,230.209946 
	C346.507111,229.705719 346.096008,229.407074 346.136322,229.193817 
	C346.674347,226.348785 346.826416,223.282303 348.111267,220.809647 
	C348.545227,219.974503 353.108154,219.907532 353.648254,220.792679 
	C354.759003,222.613144 355.158844,225.536331 354.525757,227.598801 
	C353.515259,230.890869 350.668915,231.866364 347.013367,230.209946 
z"/>
<path fill="#FFFFFF" opacity="1.000000" stroke="none" 
	d="
M291.401276,215.250092 
	C291.647339,215.206833 291.738892,215.323288 291.830475,215.439758 
	C291.635895,215.429779 291.441345,215.419800 291.401276,215.250092 
z"/>
<path fill="#F9F6FF" opacity="1.000000" stroke="none" 
	d="
M316.404114,224.495499 
	C317.878296,220.354965 320.617340,218.575150 324.249298,220.309204 
	C327.641113,221.928650 327.406525,225.457748 325.595886,228.000076 
	C324.486267,229.558090 321.169525,231.295288 320.052582,230.696686 
	C318.266632,229.739594 317.485504,226.907547 316.404114,224.495499 
z"/>
<path fill="#FAFAFA" opacity="1.000000" stroke="none" 
	d="
M410.274597,217.748779 
	C414.938446,217.397629 417.641754,219.445633 418.786163,223.422943 
	C420.025970,227.731628 417.760803,232.314392 413.952026,233.646484 
	C410.049530,235.011322 405.806061,232.865463 404.402802,228.817535 
	C402.754547,224.062958 404.726776,220.095367 410.274597,217.748779 
z"/>
<path fill="#8D54FF" opacity="1.000000" stroke="none" 
	d="
M160.699509,192.635834 
	C158.265182,205.390686 158.265106,205.394119 145.657166,205.116821 
	C144.687683,205.095505 143.720291,204.978302 142.322342,204.873444 
	C142.594589,199.944901 142.854065,195.247406 143.149078,189.906601 
	C148.621735,189.906601 153.870438,189.833923 159.110962,190.007904 
	C159.699036,190.027405 160.240738,191.443665 160.699509,192.635834 
z"/>
<path fill="#8D54FF" opacity="1.000000" stroke="none" 
	d="
M121.940475,204.151611 
	C121.449913,199.322693 121.132408,194.920135 120.790596,190.180573 
	C126.828407,190.180573 132.185181,190.180573 137.682037,190.180573 
	C137.682037,195.124496 137.682037,199.821228 137.682037,205.296814 
	C132.194794,205.043457 127.154160,204.810730 121.940475,204.151611 
z"/>
<path fill="#8D54FF" opacity="1.000000" stroke="none" 
	d="
M116.849152,198.282852 
	C116.854935,200.568680 116.854935,202.395050 116.854935,204.673157 
	C111.790482,204.673157 106.758896,204.673157 101.271782,204.673157 
	C100.546310,200.112015 99.799622,195.417496 98.982765,190.281830 
	C104.758331,190.281830 110.259987,190.281830 115.935318,190.281830 
	C116.253601,192.925201 116.548492,195.374298 116.849152,198.282852 
z"/>
<path fill="#8F56FF" opacity="1.000000" stroke="none" 
	d="
M163.640594,202.445221 
	C163.902802,200.884995 163.996750,199.718414 164.225113,198.578751 
	C166.159180,188.926773 166.166550,188.928253 177.134277,190.374008 
	C175.978195,194.687531 175.235046,199.112137 173.473465,203.085205 
	C172.901642,204.374893 169.681244,204.903641 167.641113,204.983475 
	C166.282211,205.036682 163.133423,206.807175 163.640594,202.445221 
z"/>
<path fill="#8D53FF" opacity="1.000000" stroke="none" 
	d="
M132.818771,220.121689 
	C129.077988,220.122345 125.809540,220.122345 122.228149,220.122345 
	C122.228149,216.650543 122.228149,213.722122 122.228149,210.400208 
	C126.955940,210.400208 131.795776,210.400208 137.561401,210.400208 
	C135.336823,213.694443 140.467712,219.067444 132.818771,220.121689 
z"/>
<path fill="#925CFF" opacity="1.000000" stroke="none" 
	d="
M132.849518,224.990570 
	C134.264389,225.769455 135.881332,226.447815 136.010605,227.341385 
	C136.378418,229.884048 136.139694,232.514450 136.139694,235.493484 
	C131.485931,235.493484 127.455933,235.493484 123.055618,235.493484 
	C122.771400,232.157883 122.498222,228.951797 122.160500,224.988327 
	C125.910675,224.988327 129.141495,224.988327 132.849518,224.990570 
z"/>
<path fill="#8D53FF" opacity="1.000000" stroke="none" 
	d="
M141.702789,215.989120 
	C141.845428,213.886505 141.977661,212.258530 142.160416,210.008759 
	C144.721848,210.008759 147.150177,210.008759 149.578506,210.008759 
	C151.879242,210.008759 154.179977,210.008759 157.210464,210.008759 
	C156.696579,213.430237 156.248337,216.414673 155.696884,220.086319 
	C151.677612,220.086319 147.741257,220.291245 143.859573,219.921875 
	C143.034958,219.843399 142.409576,217.671265 141.702789,215.989120 
z"/>
<path fill="#935DFF" opacity="1.000000" stroke="none" 
	d="
M145.147141,224.985275 
	C148.549942,224.985001 151.489319,224.985001 154.650055,224.985001 
	C154.449585,226.317398 154.323090,227.111526 154.211380,227.907730 
	C153.139755,235.545929 149.926758,237.656418 142.409317,235.642822 
	C141.946243,235.518784 141.124542,235.306839 141.118774,235.116135 
	C141.031525,232.233154 140.835327,229.317749 141.214554,226.483521 
	C141.300537,225.840988 143.472137,225.477493 145.147141,224.985275 
z"/>
<path fill="#925BFF" opacity="1.000000" stroke="none" 
	d="
M118.017754,230.943939 
	C118.706360,234.654373 117.328842,235.765259 114.086655,235.905548 
	C105.300423,236.285751 105.305603,236.405457 104.707123,225.216858 
	C108.836090,225.216858 112.956284,225.216858 117.677765,225.216858 
	C117.789268,226.973297 117.900711,228.728958 118.017754,230.943939 
z"/>
<path fill="#8D53FF" opacity="1.000000" stroke="none" 
	d="
M116.536346,210.493652 
	C117.046745,213.603149 117.205452,216.400375 117.359055,219.107529 
	C106.285408,222.672272 103.041199,220.742935 102.331139,210.181381 
	C106.959328,210.181381 111.571991,210.181381 116.536346,210.493652 
z"/>
<path fill="#9058FF" opacity="1.000000" stroke="none" 
	d="
M86.147781,197.853302 
	C85.435410,195.228058 84.819160,192.996994 84.204964,190.773392 
	C93.953682,187.850983 96.535522,190.933182 95.849617,204.433746 
	C88.748329,206.082397 88.748329,206.082397 86.147781,197.853302 
z"/>
<path fill="#9058FF" opacity="1.000000" stroke="none" 
	d="
M169.548050,217.603104 
	C166.811218,218.945450 164.233261,219.887314 160.402451,221.286911 
	C161.160355,216.421478 161.630707,213.401978 162.124969,210.228989 
	C165.269440,210.228989 168.034775,210.228989 171.274918,210.228989 
	C170.704376,212.766449 170.205658,214.984528 169.548050,217.603104 
z"/>
<path fill="#925CFF" opacity="1.000000" stroke="none" 
	d="
M163.842377,224.989166 
	C165.143784,225.442719 166.697769,225.801178 166.774857,226.362473 
	C167.401184,230.922470 163.762634,234.908142 158.734177,235.458878 
	C157.228806,228.987640 158.862274,225.330170 163.842377,224.989166 
z"/>
<path fill="#9059FF" opacity="1.000000" stroke="none" 
	d="
M98.680122,218.929596 
	C92.292671,221.097595 91.727837,220.494507 90.265259,210.225281 
	C92.542686,210.225281 94.787918,210.225281 97.322716,210.225281 
	C97.809769,213.075867 98.274651,215.796677 98.680122,218.929596 
z"/>
<path fill="#935DFF" opacity="1.000000" stroke="none" 
	d="
M97.454010,233.574066 
	C96.235237,230.770462 95.283951,228.260223 94.140511,225.242920 
	C96.517906,225.242920 97.925896,225.242920 99.642952,225.242920 
	C100.159668,228.443466 100.645782,231.454437 101.260056,235.259247 
	C99.604431,234.608047 98.662971,234.237732 97.454010,233.574066 
z"/>
<path fill="#945FFF" opacity="1.000000" stroke="none" 
	d="
M161.405640,274.609558 
	C160.878540,270.477356 163.027695,268.712036 166.280350,269.500488 
	C167.565918,269.812164 169.108734,272.721039 169.005875,274.350861 
	C168.782013,277.898102 165.064484,278.137878 161.405640,274.609558 
z"/>
<path fill="#935DFF" opacity="1.000000" stroke="none" 
	d="
M84.302315,271.565308 
	C86.337753,270.713745 88.346451,269.598450 90.035057,269.963562 
	C90.968529,270.165405 92.005325,272.937225 91.802811,274.383514 
	C91.639977,275.546448 89.739563,277.246826 88.513802,277.332611 
	C84.945129,277.582458 83.508972,275.423370 84.302315,271.565308 
z"/>
</svg>